<?xml version="1.0"?>
<svg xmlns="http://www.w3.org/2000/svg" xmlns:xlink="http://www.w3.org/1999/xlink" version="1.1" id="Capa_1" x="0px" y="0px" viewBox="0 0 496 496" style="enable-background:new 0 0 496 496;" xml:space="preserve" width="512px" height="512px"><g><path style="fill:#FFA64D;" d="M248,0l40.712,56l39.76-32l23.856,48L408,64l-23.856,120h-7.952l-22.072-12.336  C321.656,153.52,285.136,144,248,144s-73.656,9.52-106.12,27.664L119.808,184h-7.952L88,64l55.664,8l23.856-48l39.76,32L248,0z" data-original="#FFA64D"/><g>
	<path style="fill:#EB7D16" d="M496,265.376V248h-12.632c-10.008,0-19.912,2.448-28.888,6.808c6.096-8.424,9.52-18.632,9.52-29.352   c0-13.392-5.208-25.976-14.68-35.448L432,172.688l-17.32,17.32c-9.472,9.472-14.68,22.056-14.68,35.448   c0,2.92,0.336,5.776,0.832,8.592c-4.648-1.312-9.456-2.048-14.352-2.048H368v17.376c0,6.552,1.096,13.04,3.104,19.232l-0.896-0.448   l-5.92,29.616c-1.456,7.288-1.824,14.68-1.224,21.976L360,316.688l-16.096,16.096c-8.8,8.8-14.176,20.088-15.536,32.28L320,356.688   l-15.24,15.24C294.112,382.576,288,397.32,288,412.384c0,8.824,2.088,17.672,6.04,25.584l7.64,15.272   c-17.232,8.136-35.208,14.464-53.68,18.904c-18.472-4.44-36.44-10.76-53.68-18.904l7.64-15.272c3.952-7.912,6.04-16.76,6.04-25.584   c0-15.064-6.112-29.808-16.76-40.456L176,356.688l-8.368,8.368c-1.36-12.192-6.736-23.48-15.536-32.28L136,316.688l-3.064,3.064   c0.608-7.304,0.232-14.688-1.224-21.976l-5.92-29.616l-0.896,0.448c2.008-6.192,3.104-12.68,3.104-19.232V232h-18.48   c-4.896,0-9.712,0.736-14.352,2.048c0.496-2.816,0.832-5.68,0.832-8.592c0-13.392-5.208-25.976-14.68-35.448L64,172.688   l-17.32,17.32C37.208,199.48,32,212.064,32,225.456c0,10.72,3.424,20.928,9.52,29.352C32.544,250.448,22.64,248,12.632,248H0   v17.376c0,16.48,6.688,32.624,18.344,44.28c0.824,0.824,1.72,1.568,2.592,2.344H16v23.032c0,13.08,5.096,25.376,14.344,34.624   c5.432,5.432,11.936,9.384,19.016,11.76l-20.976,5.24l7.16,14.328c3.896,7.8,9.008,14.88,15.168,21.048   c11.344,11.344,25.648,19,41.384,22.152l2.024,0.408c-0.36,0.496-0.768,0.944-1.104,1.456l-8.12,12.176l14.016,9.344   C111.128,475.696,125.328,480,140,480s28.872-4.304,41.08-12.44l2.56-1.712c9.432,4.624,19.024,8.84,28.864,12.416   c-9.768,1.048-19.592,1.736-29.48,1.736H152v16h31.024c21.984,0,43.752-2.576,64.976-7.384c21.224,4.808,42.992,7.384,64.976,7.384   H344v-16h-31.024c-9.888,0-19.712-0.688-29.48-1.728c9.832-3.576,19.432-7.792,28.864-12.416l2.56,1.712   C327.128,475.696,341.328,480,356,480s28.872-4.304,41.08-12.44l14.016-9.344l-8.12-12.176c-0.344-0.512-0.744-0.96-1.104-1.456   l2.024-0.408c15.736-3.152,30.04-10.808,41.384-22.152c6.16-6.168,11.272-13.248,15.168-21.048l7.168-14.328l-20.976-5.24   c7.08-2.376,13.584-6.328,19.016-11.76c9.248-9.24,14.344-21.536,14.344-34.616V312h-4.936c0.872-0.776,1.768-1.52,2.592-2.344   C489.312,298,496,281.856,496,265.376z M176,379.312l3.928,3.928C187.6,390.912,192,401.528,192,412.384   c0,6.36-1.512,12.736-4.352,18.432l-7.608,15.224c-2.024-1.104-4.016-2.272-6.016-3.424l-7.872-11.808   c-4.024-6.04-6.152-13.064-6.152-20.328c0-9.784,3.816-18.976,10.728-25.896L176,379.312z M104.416,377.264   c-0.472-0.728-0.992-1.44-1.456-2.176c0.416-0.32,0.832-0.64,1.24-0.968C104.256,375.176,104.296,376.224,104.416,377.264z    M112.744,336.592c-3.848,9.624-10.016,17.944-17.856,24.56c-2.136-4.064-4.088-8.2-5.928-12.384   c-0.584-1.536-1.304-3.016-2.024-4.496c-0.04-0.088-0.064-0.184-0.104-0.272H88v-9.04c0-3.952,0.48-7.912,1.448-11.784   c3.392-13.536,12.4-24.92,24.768-31.328l1.816,9.064C118.424,312.904,117.288,325.24,112.744,336.592z M76.68,311.008   c-0.008-0.032-0.016-0.064-0.016-0.096c0.024,0,0.04-0.008,0.064-0.008C76.712,310.944,76.696,310.976,76.68,311.008z    M140.784,344.096c7.232,7.232,11.216,16.848,11.216,27.08c0,6.928-1.88,13.744-5.456,19.696L136,408.456l-10.544-17.568   C121.88,384.92,120,378.112,120,371.176c0-10.232,3.984-19.856,11.216-27.088l4.784-4.776L140.784,344.096z M112,248v1.376   c0,12.272-4.976,24.288-13.656,32.968c-6.192,6.192-14.096,10.456-22.568,12.416c-0.792-2.6-1.704-5.152-2.808-7.616   c-0.224-2.392-0.376-4.8-0.512-7.208l2.288-6.864c2.568-7.704,7.696-14.424,14.448-18.912c6.032-4.032,13.064-6.16,20.328-6.16H112   z M57.992,201.32L64,195.312l6.008,6.008C76.36,207.672,80,216.472,80,225.456c0,11.44-5.68,22.056-15.192,28.4L64,254.392   l-0.808-0.536C53.68,247.504,48,236.888,48,225.456C48,216.472,51.64,207.672,57.992,201.32z M16,265.376v-1.256   c9.608,0.656,18.976,4.12,26.696,9.904c6.312,4.728,11.272,10.96,14.744,17.968c0.728,6.704,1.768,13.336,3.112,19.904   c-11.544-0.528-22.704-5.36-30.896-13.552C20.976,289.664,16,277.648,16,265.376z M32,335.032V328h3.656   c10.984,0,21.304,4.272,29.072,12.04c2.992,2.992,5.424,6.448,7.36,10.176c0.64,1.56,1.392,3.08,2.064,4.632   c0.52,1.408,1.024,2.824,1.384,4.288L77.752,368H64.968c-8.68,0-17.168-3.52-23.312-9.656C35.52,352.2,32,343.712,32,335.032z    M62.032,410.72c-4.016-4.016-7.472-8.504-10.296-13.408l7.024-1.76c8.672-2.152,17.816-2.152,26.488,0   c7.248,1.816,14.024,5.104,19.92,9.608c5.776,7.056,11.864,13.816,18.448,20.048c-5.304,1.16-10.328,3.184-14.928,5.968   l-13.44-2.688C82.616,425.968,71.136,419.816,62.032,410.72z M107.8,454.248l-0.68-0.456C113.408,445.136,123.432,440,134.2,440   c2.696,0,5.392,0.352,8.008,1c5.352,4.024,10.88,7.84,16.632,11.376c2.712,1.672,5.528,3.136,8.288,4.712   C148.624,466.776,125.312,465.92,107.8,454.248z M480,265.376c0,12.272-4.976,24.288-13.656,32.968   c-8.192,8.192-19.352,13.024-30.896,13.552c1.344-6.56,2.384-13.2,3.112-19.904c3.464-7.008,8.432-13.24,14.752-17.968   c7.712-5.792,17.08-9.248,26.688-9.904V265.376z M419.344,310.92c-0.008,0.032-0.016,0.064-0.024,0.096   c-0.016-0.04-0.032-0.072-0.048-0.112C419.296,310.912,419.32,310.912,419.344,310.92z M406.544,323.168   c0.976,3.88,1.456,7.84,1.456,11.792V344h1.16c-0.04,0.088-0.064,0.184-0.104,0.272c-0.72,1.48-1.44,2.96-2.024,4.504   c-1.84,4.184-3.792,8.32-5.928,12.376c-7.84-6.616-14.008-14.936-17.856-24.568c-4.544-11.344-5.68-23.68-3.28-35.672l1.816-9.064   C394.152,298.256,403.168,309.64,406.544,323.168z M393.04,375.096c-0.464,0.736-0.976,1.44-1.456,2.168   c0.12-1.04,0.152-2.088,0.216-3.144C392.208,374.456,392.624,374.768,393.04,375.096z M425.992,201.32l6.008-6.008l6.008,6.008   c6.352,6.352,9.992,15.152,9.992,24.136c0,11.44-5.68,22.056-15.192,28.4L432,254.392l-0.808-0.536   c-9.512-6.352-15.192-16.968-15.192-28.4C416,216.472,419.64,207.672,425.992,201.32z M384,248h2.48   c7.264,0,14.296,2.128,20.336,6.152c6.752,4.496,11.872,11.208,14.448,18.912l2.288,6.864c-0.136,2.408-0.288,4.816-0.512,7.208   c-1.104,2.464-2.016,5.024-2.808,7.616c-8.472-1.96-16.376-6.224-22.568-12.416c-8.688-8.672-13.664-20.688-13.664-32.96V248z    M355.216,344.096l4.784-4.784l4.784,4.784c7.232,7.232,11.216,16.848,11.216,27.08c0,6.928-1.88,13.744-5.456,19.696L360,408.456   l-10.544-17.568C345.88,384.92,344,378.112,344,371.176C344,360.944,347.984,351.328,355.216,344.096z M308.352,430.816   c-2.848-5.696-4.352-12.072-4.352-18.432c0-10.856,4.4-21.472,12.072-29.144l3.928-3.928l5.272,5.272   c6.912,6.92,10.728,16.12,10.728,25.896c0,7.256-2.128,14.28-6.152,20.32l-7.872,11.808c-2,1.152-3.992,2.32-6.016,3.424   L308.352,430.816z M388.2,454.248c-17.52,11.672-40.824,12.528-59.336,2.84c2.76-1.576,5.576-3.04,8.288-4.712   c5.752-3.536,11.28-7.36,16.632-11.376c2.624-0.648,5.32-1,8.016-1c10.776,0,20.8,5.136,27.088,13.8L388.2,454.248z    M433.968,410.72c-9.104,9.104-20.584,15.248-33.208,17.776l-13.44,2.688c-4.6-2.776-9.624-4.808-14.928-5.968   c6.584-6.232,12.664-12.992,18.448-20.048c5.896-4.512,12.672-7.8,19.92-9.608c8.672-2.152,17.816-2.152,26.488,0l7.024,1.76   C441.44,402.208,437.984,406.704,433.968,410.72z M464,335.032c0,8.68-3.52,17.168-9.656,23.312   C448.2,364.48,439.712,368,431.032,368h-12.784l2.208-8.864c0.368-1.464,0.864-2.88,1.384-4.288   c0.68-1.552,1.424-3.072,2.064-4.632c1.936-3.728,4.368-7.184,7.36-10.176c7.776-7.768,18.096-12.04,29.08-12.04H464V335.032z" data-original="#333333" class="active-path" data-old_color="#333333"/>
	<rect x="168" y="88" style="fill:#EB7D16" width="16" height="16" data-original="#333333" class="active-path" data-old_color="#333333"/>
	<rect x="120" y="112" style="fill:#EB7D16" width="16" height="16" data-original="#333333" class="active-path" data-old_color="#333333"/>
	<rect x="312" y="88" style="fill:#EB7D16" width="16" height="16" data-original="#333333" class="active-path" data-old_color="#333333"/>
	<rect x="360" y="112" style="fill:#EB7D16" width="16" height="16" data-original="#333333" class="active-path" data-old_color="#333333"/>
	<path style="fill:#EB7D16" d="M248,112c13.232,0,24-10.768,24-24s-10.768-24-24-24s-24,10.768-24,24S234.768,112,248,112z M248,80   c4.416,0,8,3.584,8,8s-3.584,8-8,8s-8-3.584-8-8S243.584,80,248,80z" data-original="#333333" class="active-path" data-old_color="#333333"/>
</g></g> </svg>
